<?xml version="1.0" encoding="UTF-8"?>
<svg xmlns="http://www.w3.org/2000/svg" viewBox="0 0 512 512">
  <defs>
    <linearGradient id="bg" x1="0%" y1="0%" x2="100%" y2="100%">
      <stop offset="0%" stop-color="#020617"/>
      <stop offset="50%" stop-color="#0f172a"/>
      <stop offset="100%" stop-color="#020617"/>
    </linearGradient>
    <linearGradient id="accent" x1="0%" y1="0%" x2="100%" y2="100%">
      <stop offset="0%" stop-color="#38bdf8"/>
      <stop offset="100%" stop-color="#8b5cf6"/>
    </linearGradient>
  </defs>

  <!-- Фон -->
  <rect x="32" y="32" width="448" height="448" rx="64" ry="64"
        fill="url(#bg)" stroke="#1e293b" stroke-width="4"/>

  <!-- Узлы n8n (левая часть) -->
  <circle cx="148" cy="196" r="28" fill="#22c55e"/>
  <circle cx="212" cy="272" r="24" fill="#38bdf8"/>
  <circle cx="116" cy="288" r="20" fill="#eab308"/>

  <line x1="148" y1="196" x2="212" y2="272"
        stroke="#e5e7eb" stroke-width="6" stroke-linecap="round"/>
  <line x1="148" y1="196" x2="116" y2="288"
        stroke="#e5e7eb" stroke-width="6" stroke-linecap="round"/>
  <line x1="116" y1="288" x2="212" y2="272"
        stroke="#e5e7eb" stroke-width="4" stroke-linecap="round" opacity="0.7"/>

  <!-- Карточка изображения (правая часть) -->
  <rect x="268" y="156" width="176" height="136" rx="20" ry="20"
        fill="none" stroke="url(#accent)" stroke-width="6"/>

  <!-- "Горы" и "солнце" -->
  <path d="M286 268 L326 216 L362 252 L390 228 L430 268 Z"
        fill="url(#accent)" opacity="0.9"/>
  <circle cx="404" cy="188" r="14" fill="#fde047"/>

  <!-- Условная "бумажная ракета" (Telegram-стиль, но упрощённый) -->
  <path d="M308 190 L420 154 L378 238 L348 214 Z"
        fill="#38bdf8" opacity="0.85"/>
  <path d="M348 214 L356 242 L378 238 Z"
        fill="#0f172a" opacity="0.9"/>

  <!-- Подпись -->
  <text x="256" y="384" text-anchor="middle"
        font-family="system-ui, -apple-system, BlinkMacSystemFont, 'Segoe UI', sans-serif"
        font-size="26" fill="#e5e7eb" letter-spacing="1">
    n8n image generator bot
  </text>
</svg>
